<?xml version="1.0" encoding="UTF-8" standalone="no"?>
<!-- Created with Inkscape (http://www.inkscape.org/) -->

<svg
   xmlns:dc="http://purl.org/dc/elements/1.1/"
   xmlns:cc="http://creativecommons.org/ns#"
   xmlns:rdf="http://www.w3.org/1999/02/22-rdf-syntax-ns#"
   xmlns:svg="http://www.w3.org/2000/svg"
   xmlns="http://www.w3.org/2000/svg"
   xmlns:xlink="http://www.w3.org/1999/xlink"
   xmlns:sodipodi="http://sodipodi.sourceforge.net/DTD/sodipodi-0.dtd"
   xmlns:inkscape="http://www.inkscape.org/namespaces/inkscape"
   width="230"
   height="484"
   id="svg2"
   version="1.1"
   inkscape:version="0.48.2 r9819"
   sodipodi:docname="Milk.svg"
   inkscape:export-filename="Milk.png"
   inkscape:export-xdpi="90"
   inkscape:export-ydpi="90">
  <defs
     id="defs4">
    <inkscape:path-effect
       effect="bend_path"
       id="path-effect4044"
       is_visible="true"
       bendpath="m -393,874.36211 32,0"
       prop_scale="1"
       scale_y_rel="false"
       vertical="false" />
    <linearGradient
       id="linearGradient3767">
      <stop
         style="stop-color:#ce00e1;stop-opacity:1;"
         offset="0"
         id="stop3769" />
      <stop
         id="stop3775"
         offset="0.73803526"
         style="stop-color:#b8001e;stop-opacity:1;" />
      <stop
         style="stop-color:#2e1c40;stop-opacity:1;"
         offset="1"
         id="stop3771" />
    </linearGradient>
    <linearGradient
       id="linearGradient3755">
      <stop
         style="stop-color:#ffbf00;stop-opacity:1;"
         offset="0"
         id="stop3757" />
      <stop
         id="stop3763"
         offset="0.5"
         style="stop-color:#ff0000;stop-opacity:1;" />
      <stop
         style="stop-color:#a40000;stop-opacity:1;"
         offset="0.93747914"
         id="stop3765" />
      <stop
         style="stop-color:#bd0027;stop-opacity:1;"
         offset="1"
         id="stop3759" />
    </linearGradient>
    <radialGradient
       inkscape:collect="always"
       xlink:href="#linearGradient3755"
       id="radialGradient3761"
       cx="2.3890092"
       cy="2.2403796"
       fx="2.3890092"
       fy="2.2403796"
       r="1.3420026"
       gradientTransform="matrix(1.288432,0,0,0.86894251,-0.68906665,0.43128066)"
       gradientUnits="userSpaceOnUse" />
    <radialGradient
       inkscape:collect="always"
       xlink:href="#linearGradient3767"
       id="radialGradient3773"
       cx="1.9661899"
       cy="2.6631989"
       fx="1.9661899"
       fy="2.6631989"
       r="1.4994444"
       gradientTransform="matrix(1,0,0,0.70860465,0,0.77604378)"
       gradientUnits="userSpaceOnUse" />
  </defs>
  <sodipodi:namedview
     id="base"
     pagecolor="#ffffff"
     bordercolor="#666666"
     borderopacity="1.0"
     inkscape:pageopacity="1"
     inkscape:pageshadow="2"
     inkscape:zoom="1.4142136"
     inkscape:cx="522.08376"
     inkscape:cy="345.04382"
     inkscape:document-units="px"
     inkscape:current-layer="layer1"
     showgrid="false"
     inkscape:window-width="1920"
     inkscape:window-height="1017"
     inkscape:window-x="-8"
     inkscape:window-y="-8"
     inkscape:window-maximized="1"
     fit-margin-top="0"
     fit-margin-left="0"
     fit-margin-right="0"
     fit-margin-bottom="0"
     showguides="true"
     inkscape:guide-bbox="true" />
  <metadata
     id="metadata7">
    <rdf:RDF>
      <cc:Work
         rdf:about="">
        <dc:format>image/svg+xml</dc:format>
        <dc:type
           rdf:resource="http://purl.org/dc/dcmitype/StillImage" />
        <dc:title />
      </cc:Work>
    </rdf:RDF>
  </metadata>
  <g
     inkscape:label="Layer 1"
     inkscape:groupmode="layer"
     id="layer1"
     transform="translate(-88.619088,-508.53699)">
    <path
       style="fill:none;stroke:#c0130e;stroke-width:7.99999952;stroke-linecap:round;stroke-linejoin:round;stroke-miterlimit:4;stroke-opacity:0.87058824;stroke-dasharray:none"
       d="M 279.43466,518.00517 219.29472,866.26934"
       id="path4112"
       inkscape:connector-curvature="0" />
    <rect
       style="fill:#ffffff;fill-opacity:1;fill-rule:nonzero;stroke:none"
       id="rect4107"
       width="64.149254"
       height="74.056175"
       x="160.15712"
       y="886.28455" />
    <g
       id="g4040"
       inkscape:path-effect="#path-effect4044"
       transform="matrix(0.80064965,0.10477649,-0.13520606,0.80449602,665.24396,28.550117)">
      <path
         style="fill:#ffffff;fill-opacity:0.78431373;stroke:#dc9a9a;stroke-width:2.46503305;stroke-miterlimit:4;stroke-opacity:1;stroke-dasharray:none"
         d="m -393,655.46368 c 18.87258,-18.39569 25.33516,-0.5985 32,0 l 0,440.00002 c 0,0 -22.36598,13.5225 -32,0 z"
         id="rect3947"
         inkscape:original-d="m -393,654.36212 c 18.87258,-18.39569 25.33516,-0.5985 32,0 l 0,439.99998 c 0,0 -22.36598,13.5225 -32,0 z"
         inkscape:connector-curvature="0"
         sodipodi:nodetypes="ccccc" />
      <path
         id="rect3969-4"
         d="M -366.81802,651.48922 -393,675.68241 l 0,28 32,-26.78125 0,-21.4375 c -1.67258,-1.02409 -3.74891,-2.43417 -5.81802,-3.97444 z m 5.81802,57.41194 -32,26.78125 0,28 32,-26.78125 z m 0,60 -32,26.78125 0,28 32,-26.78125 z m 0,60 -32,26.78125 0,28 32,-26.78125 z m 0,60 -32,26.78125 0,28 32,-26.78125 z m 0,60 -32,26.78125 0,28.00009 32,-26.78134 z m 0,60.00004 -32,26.7813 0,28 32,-26.7813 z m 0,60 -31.71875,26.5625 c 5.83382,9.554 17.87236,6.5994 31.71875,0 z"
         style="fill:#ff0505;fill-opacity:0.41489366;stroke:none"
         inkscape:connector-curvature="0"
         inkscape:original-d="M -366.81802,650.38766 -393,674.58085 l 0,28 32,-26.78125 0,-21.4375 c -1.67258,-1.02409 -3.74891,-2.43417 -5.81802,-3.97444 z M -361,707.7996 l -32,26.78125 0,28 32,-26.78125 z m 0,60 -32,26.78125 0,28 32,-26.78125 z m 0,60 -32,26.78125 0,28 32,-26.78125 z m 0,60 -32,26.78125 0,28 32,-26.78125 z m 0,60 -32,26.78125 0,28.00005 32,-26.7813 z m 0,60 -32,26.7813 0,28 32,-26.7813 z m 0,60 -31.71875,26.5625 c 5.83382,9.554 17.87236,6.5994 31.71875,0 z"
         sodipodi:nodetypes="cccccccccccccccccccccccccccccccccccccccc" />
    </g>
    <path
       style="fill:#d2d2d2;fill-opacity:0.82978725"
       d="m 154.39598,992.22316 c -17.24167,-4.01365 -38.694,-0.45838 -51.4833,-15.11973 -4.798188,-22.15089 34.54742,-19.15485 44.56155,-36.09536 17.89753,-17.52637 -2.64964,-39.41982 -12.36692,-55.01057 -11.89411,-28.29694 -3.05744,-60.33734 -14.09878,-88.94729 -8.46825,-27.32456 -13.13201,-55.75668 -12.04109,-84.41764 0.14987,-32.04843 -1.70334,-64.94511 -15.113469,-94.578 -5.608212,-17.58774 -6.492041,-36.50397 -3.708862,-54.69034 17.554771,-12.04371 39.758491,-4.03432 59.460271,-6.22419 52.11978,0.3779 104.38234,0.0737 156.27993,5.56761 19.00425,4.42088 11.74608,17.23316 9.41121,32.01863 -2.33486,14.78547 -13.66177,32.9817 -16.64275,50.91443 -8.83001,27.49205 -8.5772,56.47736 -9.311,84.96996 -2.10976,29.46951 -11.26019,57.74439 -20.29932,85.64738 0.67688,16.31118 -6.59767,30.48291 -10.11335,43.85727 6.22982,22.41526 -7.92116,38.99512 -18.93977,56.18802 -9.1794,22.07416 14.3816,35.41303 31.20696,42.47106 13.3896,3.67684 25.81799,20.34291 5.88553,25.74586 -19.85435,7.82527 -41.82207,8.20454 -62.84969,6.64338 -19.97432,-0.90142 -39.89717,2.36921 -59.83715,1.05952 z m 105.6625,-27.84491 c -3.72633,-3.62234 -8.35163,0.98062 -0.95497,0.20758 z m 10.10685,-2.61526 c -4.79183,-7.01006 -14.88494,-1.93699 -2.61678,-0.20295 z M 192.98575,941.177 c -1.37741,-12.88801 -29.63804,-7.91385 -9.28665,-0.10165 3.07383,0.89051 6.18098,-0.16502 9.28665,0.10165 z m 11.456,-0.35073 c -5.72886,-5.3017 -7.8889,5.7659 0,0 z m -31.98722,-20.27839 c 6.37612,-13.11734 -11.88528,3.90765 -2.39493,1.33972 z m 17.8171,-14.77213 c 7.22842,2.03566 23.98553,-3.87616 7.84977,-6.11834 -6.80977,-13.61361 -30.45154,16.47022 -7.84977,6.11834 z m -21.79484,-7.0028 c -10.54012,-11.05039 -1.6812,6.98769 0.11647,0.54294 z m 17.14686,-29.11502 c 1.6295,-89.34658 0.23064,-178.71028 0.69244,-268.0633 5.52435,-16.11045 25.1194,6.26871 14.7278,15.71856 -1.36906,75.18104 -2.13526,150.39143 -0.0462,225.5586 0.18388,11.13865 -8.46342,37.60096 10.51549,34.93326 7.21472,-8.92696 3.87649,-25.28609 7.19333,-37.16359 4.44544,-36.03352 11.86991,-71.67262 17.25642,-107.49702 0.71853,-9.07785 -0.0774,-34.16198 5.36575,-32.96632 6.15566,2.28114 3.49379,-25.40556 6.97865,-33.76845 0.97125,-7.38678 4.02751,-32.86757 2.82802,-27.79184 -0.43683,6.50297 -9.09344,31.21704 -8.23352,11.4933 1.97208,-25.28644 8.33528,-56.17121 34.19428,-67.42949 10.70285,-1.75735 23.69791,-18.71574 4.93563,-19.09954 -55.7736,-2.59881 -111.76566,-7.06011 -167.53503,-1.99965 6.83629,4.52522 31.63087,9.99734 13.47297,17.34912 20.09755,7.82027 8.81124,27.86918 13.27945,43.7726 10.65786,53.98653 1.87373,110.06896 15.55138,163.66908 3.5241,20.96388 5.22096,42.16981 7.82325,63.25455 1.75341,-41.97302 -10.37324,-83.12461 -8.55873,-125.14086 -0.0128,-35.02585 1.79461,-71.00855 -9.70899,-104.62315 -3.84091,-13.07697 7.01181,-19.08307 7.723,-2.76492 9.43347,48.10239 -0.60464,97.66916 9.3616,145.75304 3.35386,28.16316 7.27156,56.5677 7.26305,84.8926 -2.62721,10.09866 1.01736,38.91254 14.92879,27.888 0.14694,-1.99195 -0.0935,-3.98189 -0.009,-5.97458 z m 21.51981,-10.03383 c 2.23058,-51.42368 6.46458,-102.74549 8.13129,-154.19582 3.16348,-9.99996 1.67121,16.18596 1.99543,19.98141 -0.35858,40.78881 -5.39816,81.38846 -5.8443,122.16922 0.30109,5.68595 -4.51784,29.81276 -4.28242,12.04519 z m 9.01453,-173.35527 c -0.28263,-20.71049 3.02437,14.51981 0,0 z m 0.29061,-25.01897 c 1.77132,-14.04913 -1.20797,-45.68134 7.24836,-48.42014 -0.60962,18.34157 -5.53194,36.29666 -5.06806,54.72617 -1.73855,13.83829 -3.08904,1.56187 -2.25023,-4.42193 l 0.0365,-0.98203 0.0334,-0.90207 -4e-5,0 z m -14.9002,-68.73304 c 1.52007,-4.61091 3.38791,4.39508 0,0 z m 38.0959,286.06702 c 8.84162,-15.03087 -2.0453,-50.00029 4.40046,-54.33357 -0.64297,7.19106 0.72881,19.63593 2.43732,5.18542 2.82004,-23.34195 8.86674,-46.19455 16.18779,-68.43914 2.83934,-28.98435 0.77244,-58.26289 4.76024,-87.19655 1.84014,-16.08199 4.96978,-32.10271 10.5681,-47.32926 -3.68264,-14.5154 24.90738,-31.16935 9.916,-41.34428 -10.13393,0.52946 -25.9719,18.67895 -8.6099,21.41372 -6.70772,21.01928 -13.02069,41.97803 -23.82633,60.63551 -2.81708,23.06788 -0.0577,46.44836 -2.78152,69.58976 -3.14021,41.72967 -14.088,82.5339 -14.38966,124.52228 1.83067,2.72356 -5.88268,22.34355 1.3375,17.29611 z m 6.46505,-76.52951 c -0.99601,-8.15294 9.77004,-29.57775 3.75794,-9.81558 -0.96341,3.02736 0.19495,8.76157 -3.75794,9.81558 z m 7.34322,-40.72856 c 2.03204,-32.72415 3.21542,-65.49221 4.48315,-98.2524 13.44681,2.0535 -2.05122,25.15749 2.72556,35.51191 -0.89501,23.30223 0.28483,47.13177 -6.45417,69.74185 -2.25729,-1.6747 -0.29543,-4.76355 -0.75454,-7.00136 z m 33.75241,-166.87659 c 3.06408,-4.43603 2.46789,3.43931 0,0 z m -65.54834,279.48283 c -2.49119,1.39103 2.76394,3.74332 0,0 z m 22.0513,-32.02429 c -2.49119,1.39102 2.76394,3.74333 0,0 z m -15.72163,-25.79039 c 4.2416,-9.26619 -2.81029,-12.47125 -2.56227,-1.69823 -1.65017,7.04867 0.61783,20.42718 2.1843,4.76555 z m 2.91771,-22.0167 c -4.21084,1.8485 1.69481,7.61362 0,0 z m 8.13923,-36.09686 c 1.96185,-6.99253 4.07893,-36.84474 -0.99066,-16.10619 -1.59447,8.79381 -5.81791,31.16569 -2.1201,32.33772 1.49278,-5.31655 2.0148,-10.83265 3.11076,-16.23153 z m 35.04561,-0.93124 c -4.01024,-0.6318 0.57016,8.30835 0,0 z m 0.69139,-7.23465 c -2.4912,1.39103 2.76393,3.74333 0,0 z m -32.01639,-32.54552 c -2.6211,1.37949 3.3275,5.92463 0,0 z m 0,-7.00531 c -2.6211,1.37948 3.3275,5.92462 0,0 z m 40.77363,-44.78397 c -1.0486,-9.48656 -1.99764,14.72473 0,0 z m 1.32432,-10.25779 c -2.6211,1.3795 3.32749,5.92462 0,0 z m -28.92659,-32.77486 c 3.96748,-6.36364 3.15702,-21.65816 -0.10014,-6.53432 -2.47168,5.94226 -4.03339,22.8568 0.10014,6.53432 z m 41.20107,-2.19583 c 5.16232,-15.09088 -5.67939,9.88758 -0.31621,0.88165 z M 108.74247,601.7465 c -6.53054,-9.55734 4.50327,15.11985 0.0457,0.16857 z M 266.156,596.89201 c -2.82574,-2.35322 -1.34138,3.98989 0,0 z"
       id="path3841"
       inkscape:connector-curvature="0"
       sodipodi:nodetypes="cccccccccczccccccccccccccccccccccccccccccccccccccccccccccccccccccccccccccccccccccccccccccccccccccccccccccccccccccccccccccccccccccccccccccccccc" />
    <path
       style="fill:#afafaf"
       d="m 162.64237,986.14017 c -19.74978,-5.08754 -44.20374,4.00671 -59.87215,-12.57833 6.70778,-13.74745 35.25286,-3.35287 45.17096,-19.44492 2.31764,-18.19446 16.31872,-37.82905 -1.71812,-53.43672 -12.26799,-12.21297 -15.82307,-29.13141 -15.95422,-45.85564 -1.13275,-25.45285 -4.35203,-50.85359 -12.67276,-75.03712 -14.138,-47.27698 0.17283,-98.11722 -16.21225,-145.02497 -6.126395,-14.3812 -11.087743,-30.10017 -7.246496,-42.67622 -5.268966,-11.58141 -2.12394,-45.05934 13.281376,-25.4792 2.43088,18.37677 20.51029,26.65084 25.43291,43.9475 19.00015,54.39327 4.63587,113.77035 20.26346,168.90409 6.39962,31.41379 8.53012,63.45647 11.85925,95.28316 14.90903,12.30292 36.86902,2.90098 54.2767,4.48283 14.50813,-16.43577 1.59546,-43.30214 10.60734,-63.5007 6.65796,-36.51823 16.14381,-72.66764 18.15876,-109.86032 4.1383,-8.70043 2.24496,16.9097 3.00246,20.98712 0.48738,36.26992 -9.59792,71.49713 -12.83186,107.36438 3.27018,13.4432 -7.59325,36.15213 1.14799,44.34227 9.09009,-13.31719 5.05846,-30.37636 8.36108,-45.43133 2.13669,-22.6418 8.18317,-44.53415 15.45218,-65.9908 7.46675,-26.42636 0.68412,-54.16333 6.12041,-80.94812 5.59224,-16.47041 -0.80065,-33.65314 7.24703,-49.68632 4.40088,-18.99935 13.05923,-36.31756 26.53845,-50.61481 10.60857,-16.16294 -1.40366,14.54802 -4.1639,21.26944 -14.21666,30.61076 -22.10847,63.88912 -22.69946,97.66035 -0.54087,30.10829 -5.08493,60.01778 -14.70907,88.59538 -2.21184,7.24257 -7.22499,24.5309 -0.96218,8.47199 9.13083,-24.81553 18.82053,-50.02105 18.51291,-76.90614 -0.051,-38.86674 8.33217,-77.18489 22.16356,-113.39535 -1.42323,-9.40174 16.8217,-24.22183 10.96027,-7.53506 -9.94522,30.80495 -25.00038,61.23267 -22.84675,94.47545 -0.78168,35.15211 -3.75564,71.0383 -17.78204,103.69551 -3.60444,10.76322 -4.70742,38.53185 -11.44361,38.43346 -0.3803,-7.60539 -2.19634,-15.3351 -2.49562,-3.13282 -1.94715,21.48243 7.69392,46.96289 -9.69124,64.46652 -13.38697,11.51197 -13.94196,28.72285 -5.44383,42.26282 -5.16943,2.10028 -7.68027,-6.53804 -5.64155,2.91156 -10.26722,5.77585 9.78424,21.61027 -7.99908,16.53211 -17.49039,-10.57522 -39.18062,-17.94612 -58.81278,-8.07657 -8.70246,4.90274 -19.85655,9.23862 -28.32424,10.17941 19.51949,8.82737 42.14959,6.24057 62.9669,4.96743 17.53568,-7.13749 30.59125,6.36094 48.97943,-0.27382 9.09006,-1.74597 43.91055,-1.82333 24.06353,10.21434 -17.9215,5.37029 -37.17412,3.39105 -55.70546,5.05115 -19.77424,0.55327 -39.55866,0.47925 -59.33829,0.38701 z m 73.78159,-8.4165 c -6.79582,-5.93572 -10.18858,7.35596 0,0 z m -43.43821,0.14136 c -8.20149,-6.91677 -11.03825,5.17144 0,0 z m 64.51298,-1.11653 c -6.38437,-8.74518 -16.21063,8.99142 0,0 z m -29.39007,-24.38664 c -9.51134,0.3422 5.05932,10.38397 0,0 z m -8.9515,2.13009 c -7.17188,-9.61412 -0.4991,9.66159 0,0 z m 3.47938,-7.77556 c 11.84526,1.75989 0.6258,-17.56679 1.09926,-3.75672 -17.08292,-2.2695 -31.32407,-16.0115 -49.53952,-13.10256 -10.97735,3.33807 5.45475,6.66757 0.62906,12.69703 16.00352,-0.58433 32.04776,-0.0838 47.8112,4.16225 l 0,0 z M 173.44028,921.2744 c 11.9087,-10.27288 -19.19776,-2.03545 -5.03405,3.92936 l 2.57491,-1.88481 2.45914,-2.04455 z m 14.62749,-12.43816 c 8.70583,2.09606 32.22489,-3.86378 13.84892,-11.53822 -5.82765,-12.31115 -25.6696,3.1041 -36.93759,-1.48601 -20.4297,-7.26944 3.15837,7.98815 9.65676,11.77207 4.0055,2.21268 9.1197,3.38713 13.43191,1.25216 z m 42.14474,-3.4569 c 0.37793,-5.26812 -5.86513,10.43871 0,0 z m -77.8212,-4.69787 c -7.90711,-7.25219 2.70413,5.82502 0,0 z m 74.59969,-2.41279 c -2.11038,-8.32184 -7.21209,6.7857 0,0 z m 15.6102,-3.59177 c 2.99756,-7.347 -7.1406,8.77494 0,0 z m 9.34138,-9.02235 c 3.79722,-13.28512 -6.8065,3.39026 -0.16889,1.68302 l 0.0981,-0.97781 0.0708,-0.70521 z m -4.84623,-5.23846 c -2.2088,-5.1272 -1.21756,7.88484 0,0 z M 146.51569,850.53271 c -4.00668,-26.45588 -2.365,22.22973 0.35119,2.24436 l -0.35119,-2.24436 z m 109.54653,-32.66406 c -1.76064,-6.4698 -1.32725,9.82663 0,0 z M 133.33869,792.11392 c -11.46558,-40.24069 -6.54678,-82.36475 -8.75888,-123.49938 -2.59747,-25.59023 -8.71441,-50.78413 -17.67933,-74.88347 -15.861307,-7.04136 4.88362,22.5637 4.84275,30.5798 12.09445,34.7749 9.74526,71.85086 10.51,108.00854 0.24708,28.06222 7.69121,55.24762 14.68666,82.15888 0.0368,-7.55693 -2.35532,-14.95565 -3.6012,-22.36437 z m -3.49984,-54.49712 c -1.44743,-5.30049 -2.60586,3.31908 0,0 z M 112.4607,658.24758 c -2.62108,1.37951 3.32745,5.92459 0,0 z m -2.06291,-9.48637 c -2.49119,1.39103 2.76393,3.74332 0,0 z m -2.48058,-10.49147 c -1.51469,-6.52966 -12.715823,-38.14538 -7.60664,-18.12169 0.69008,1.37302 8.00648,27.99322 7.60664,18.12169 z m 178.891,-25.53586 c -2.49119,1.39103 2.76393,3.74333 0,0 z M 157.90414,968.81261 c 10.5254,-6.32927 12.5426,4.50169 0,0 z m 73.17024,-0.0796 c 4.45716,-3.71614 5.02546,4.53059 0,0 z m 23.40679,-9.00013 c -10.71818,-6.55805 12.08772,3.26155 0,0 z M 270.16533,667.0632 c 1.23606,-5.69094 2.51302,3.83819 0,0 z m -25.01851,-21.32517 c 2.43871,-9.41889 2.85794,-32.1619 8.9075,-32.00212 -2.82019,10.63266 -1.29163,23.14411 -8.9075,32.00212 z m 13.06966,-16.67932 c 0.13098,-4.66852 1.14984,3.50189 0,0 z m 9.28136,-36.17046 c 3.74671,-16.15266 16.31442,1.22146 0,0 z m 40.7561,-21.39752 c -6.28651,-13.97564 7.1819,3.72051 1.09004,1.11112 l -0.68871,-0.70203 -0.40133,-0.40909 z m -9.02098,-5.06286 c 3.3369,-4.67595 4.02938,4.64196 0,0 z"
       id="path3839"
       inkscape:connector-curvature="0" />
    <path
       style="fill:#8f8f8f;fill-opacity:0.54255317"
       d="m 150.88782,984.20104 c -14.30948,-3.99192 -42.80703,3.46977 -45.93932,-13.90342 8.41035,-6.48852 36.58377,1.9876 19.43605,4.91386 7.62788,6.13439 21.72205,-7.70175 21.92954,2.99995 7.81789,-3.14281 19.43015,-10.38012 25.73502,-2.72287 -21.99397,4.74795 14.45348,4.30802 21.36141,5.13854 13.82992,1.52288 -0.88555,-8.75983 9.43405,-7.60143 16.59016,-5.54372 30.806,11.22193 46.80884,6.06581 11.45979,-4.66099 19.84895,-1.4543 28.69377,-7.31299 13.86733,10.22662 -17.86169,8.96837 -24.94917,11.02738 -26.86328,3.04801 -53.87958,-2.03059 -80.66927,2.0843 -7.27334,0.51418 -14.63782,0.59972 -21.84092,-0.68913 z m 29.70859,-7.1555 c -1.90197,-4.52902 4.91088,0.88739 0,0 z m 58.04006,-2.23584 c 6.47072,-5.17706 22.19802,-2.06076 6.54395,0.4205 -2.12028,0.57441 -4.58268,0.84575 -6.54395,-0.4205 z m -2.55043,-12.05547 c -13.4853,-6.23655 0.9058,-8.2464 0,0 z m -85.16635,-2.2774 c -7.57833,-11.24906 20.58349,-18.57797 7.79599,-31.53761 -1.82617,-24.80348 -27.67975,-40.73266 -26.69511,-66.43003 -2.12773,-24.76869 -1.71597,-50.26009 -11.00126,-73.76357 -8.7569,-29.01529 -9.90641,-59.45676 -9.05705,-89.51849 -0.93808,-7.18552 1.45423,-23.53638 1.53301,-7.39937 0.52237,19.59538 -1.19933,39.38786 2.36474,58.79183 6.05339,-17.64437 -1.85942,-36.56977 0.97157,-54.79533 -0.70771,-31.61547 -6.74164,-63.47106 -20.240631,-92.1614 -3.694405,-8.79075 2.68991,-15.98011 4.016651,-3.33055 13.23339,35.17209 21.98157,72.55877 19.6304,110.3414 -0.12027,32.40594 4.20116,64.7809 13.45385,95.84682 2.94869,8.61104 0.94676,33.0635 4.38981,32.29302 5.33678,-18.15239 -3.2712,-36.57955 -5.35251,-54.6395 -1.26869,-9.28573 -8.03242,-34.4554 -3.25776,-33.67046 3.16367,7.15996 5.34951,16.05486 4.16816,2.85656 -3.08508,-22.66777 -13.10093,-45.14005 -4.78793,-67.98192 -1.50424,-21.25908 -8.09819,-41.79479 -12.03402,-62.691 0.3165,-19.88819 -16.71633,-30.80373 -21.805218,-46.83499 -2.780099,-9.39785 7.013878,-18.81269 8.302988,-4.69209 9.91041,19.18963 30.55337,32.4043 32.25175,55.69019 5.91541,20.55823 5.98372,41.74958 3.32906,62.65466 0.78936,23.26765 2.19394,46.32594 8.45014,68.88924 6.88171,33.62632 15.13602,67.74586 13.20447,102.19019 0.0649,28.62031 29.94768,23.31131 49.16628,21.84339 27.8295,-2.1973 13.52346,-32.72395 18.96648,-50.17881 3.63258,-30.56873 11.12708,-60.51049 19.34554,-90.12686 2.86456,33.30593 -11.63261,64.94075 -10.83714,98.17903 1.85809,12.19509 -6.03097,34.10192 -0.24595,39.75982 16.97203,-11.30711 5.93149,-36.3234 12.19849,-53.38744 4.79533,-32.83835 19.51221,-63.64656 20.0216,-97.22492 1.71252,-33.0142 3.8342,-66.23499 13.45895,-98.07588 3.64642,-17.69844 11.73425,-34.28143 23.54449,-47.90386 -9.21071,28.57862 -23.80172,56.66636 -28.45079,87.01308 -4.77535,40.33468 -1.81269,82.29701 -16.87161,120.86288 -5.82308,19.44269 -11.17627,39.6613 -9.22958,60.13725 -0.6771,-6.23152 5.26533,-28.52894 4.9088,-10.01387 -0.812,14.49474 5.92589,31.99696 -3.38372,44.51296 -0.1676,-7.24011 -0.0529,-41.45966 -5.36686,-21.2736 -0.8507,8.39344 -4.906,30.52781 -6.30245,31.37181 13.66602,-12.68308 8.92779,7.43623 0.47913,12.10146 -14.35007,8.99867 4.64371,37.79221 -16.94843,30.11902 -11.54774,8.38261 -28.95537,-13.68256 -45.94048,-8.4747 -15.75872,1.31158 7.91416,-23.35183 -10.75111,-13.53384 -12.61191,9.87053 8.20611,21.15872 3.54844,26.95276 14.8147,0.68306 30.02936,-1.46622 44.5173,3.45108 9.22752,2.28348 18.32774,-4.07841 7.72595,5.8772 3.95093,15.11526 -11.13731,-7.00212 -21.09479,-2.55169 -18.02144,-0.74784 -35.97868,1.9846 -52.08964,10.45613 z m 76.14537,-41.39803 c -5.95933,-5.98385 -7.52393,7.2958 0,0 z m -19.5883,-1.31528 c -3.20913,-6.18595 -5.55005,5.35193 0,0 z m -10.27697,-7.45594 c 14.51852,4.80943 26.34517,-16.18528 6.17527,-17.68343 -18.36584,-3.68239 -37.6827,9.71282 -54.40549,-4.46115 0.0635,21.42792 -11.02965,-20.95656 -11.30278,-14.94973 -0.39138,16.72737 11.82225,32.40446 28.45232,31.22036 9.40063,5.17719 20.37158,8.14896 31.08068,5.87395 z m 34.04806,-0.24806 c 9.67648,-16.70531 -13.88678,0.8748 -2.8243,1.18505 l 2.8243,-1.18505 z m -4.48927,-10.80957 c 2.07532,-14.06597 -12.09883,9.5758 0,0 z m -70.09529,-13.84494 c -13.49042,-11.86399 -4.98619,-47.44409 -13.1629,-50.69675 -0.27433,17.30165 -1.03358,40.15819 13.09346,52.18223 l 2.18149,0.7033 -2.11205,-2.18878 0,0 z M 137.8575,862.09319 c -2.82243,-3.64814 -0.69537,4.96726 0,0 z m 1.00233,-12.38695 c -3.55304,-12.98709 -3.38566,10.33005 0,0 z m -9.62214,-53.85428 c -4.83094,-9.12613 -5.59507,-35.66884 -11.41795,-34.92353 2.47223,11.92523 2.96213,25.31813 11.41795,34.92353 z m 10.14696,-17.15556 c -4.69085,-17.58599 -5.20464,-3.70076 0,0 z m -0.86969,-119.46711 c -2.40889,3.29118 2.79097,5.86247 0,0 z m -1.05421,-5.46429 c -2.49119,1.39104 2.76393,3.74333 0,0 z m -1.08901,-10.02844 c -2.20645,-13.74738 -2.57617,-1.84166 0.0197,3.52632 l -0.0197,-3.52632 z m 124.26383,198.88859 c -1.05468,-16.85537 -5.10426,-33.75587 3.65581,-49.5336 3.33699,-15.91293 17.78358,-27.05633 15.1012,-44.07671 0.78442,-19.53331 0.22349,-39.21783 3.4973,-58.56366 10.48907,19.51385 2.6908,42.70189 1.47377,63.50402 -6.19949,29.91865 -18.26953,58.47866 -21.90973,88.94405 -0.44354,0.60514 -1.654,0.60656 -1.81835,-0.2741 z M 126.43792,743.98081 c -2.28664,-12.16118 7.88078,6.27843 0,0 z M 286.4394,675.95482 c -1.09113,-25.00239 11.85183,-47.40467 17.56183,-71.10774 7.40659,-15.35073 11.18167,-1.64325 4.71153,6.94884 -7.34403,21.31684 -16.72875,42.16317 -20.22176,64.59163 -0.76746,1.48644 -1.38542,0.0565 -2.0516,-0.43273 z m -175.99298,-5.49667 c -0.13634,-8.06689 -8.22645,-31.91556 -4.6362,-28.77409 2.04661,8.90631 7.58556,20.56745 4.6362,28.77409 z m 161.83733,-14.96266 c 1.91144,-12.65551 0.98923,8.5401 0,0 z m 9.90956,-37.41036 c 0.87034,-7.52995 3.33172,3.29171 0,0 z m -29.9995,-3.81189 c 0.89867,-11.82341 2.80309,6.41434 0,0 z M 94.836354,611.0451 c 0.130992,-4.66853 1.149838,3.50189 0,0 z m -1.4824,-4.1865 c -1.388549,-7.60502 2.816374,4.18644 0,0 z M 268.6273,592.39188 c 0.57065,-9.06467 7.49044,1.2066 0,0 z"
       id="path3837"
       inkscape:connector-curvature="0" />
    <path
       style="fill:#5d5d5d"
       d="m 157.40297,983.57278 c -5.83343,1.39577 -27.3061,-3.95574 -9.63837,-3.31936 8.56625,-3.15158 32.91495,4.22164 11.9628,3.48228 -0.77482,-0.0544 -1.54961,-0.10861 -2.32443,-0.16292 z m 62.64576,-1.08855 c 6.27073,-5.21931 28.29175,1.9405 8.82073,0.68791 -2.87834,0.13316 -6.4705,1.95844 -8.82073,-0.68791 z m 24.62798,-0.62683 c 4.93363,-5.94001 8.69543,4.44807 0,0 z m 10.00259,-1.00978 c 7.85305,-6.44547 10.15977,3.91246 0,0 z m -129.7778,-0.98334 c -6.84156,-7.68196 15.72765,4.41411 0,0 z m 81.69012,-1.79132 c 6.97002,-8.60074 15.49593,7.60381 1.60121,1.28287 l -0.96403,-0.43849 -0.63718,-0.84438 z m -97.80175,-0.33304 c 4.61712,-4.03398 5.23761,5.06772 0,0 z m 114.26586,-0.94169 c 4.13078,-11.06246 4.66649,6.96937 0,0 z m -117.27285,-5.0624 c 8.43933,-7.35108 13.60344,3.24207 0,0 z m 47.1096,-17.01336 c 7.55279,-5.30203 -1.24712,4.01116 0,0 z m 67.72185,-1.70817 c -0.0389,-4.15562 2.41332,5.11729 0,0 z m -63.54667,-2.75903 c 12.67862,-2.34059 -0.84541,-25.37328 6.12628,-23.64947 2.03066,8.32381 14.63475,16.03078 0.13074,21.0287 -1.03997,0.87925 -8.18272,8.58353 -6.25702,2.62077 z m 9.36071,-1.54448 c 6.05342,-6.98275 34.11391,-6.50042 27.33739,-1.435 -9.09803,0.70886 -18.21179,1.26385 -27.33739,1.435 z m 37.61492,0.2985 c 6.7902,-11.7449 15.29983,7.23324 0,0 z m 11.24436,-8.07758 c -5.18934,-12.30119 -26.76246,-8.06582 -31.93344,-14.90797 -15.15314,3.92058 -8.48466,-8.69404 2.19834,-5.96581 6.91858,0.31519 37.90659,0.73698 17.48495,-3.56415 -11.5569,-4.32287 -46.23009,7.02401 -40.60707,-10.2582 17.01991,4.61544 35.89813,9.8885 52.60107,0.6389 10.29977,-2.35462 19.45266,-18.85685 2.6805,-9.61337 -11.94469,3.86919 6.82162,-12.47176 -8.32495,-7.73947 -16.4541,0.71522 -33.09955,4.71469 -49.48209,2.11202 -9.4528,-4.6174 -8.41257,-5.19936 0.96928,-2.81799 -3.77023,-6.8225 -5.09585,-9.9356 -7.68683,-15.38377 1.96238,-7.46458 -7.68261,-23.66107 -5.46146,-35.83877 -4.66749,-21.28029 -15.26508,-41.49042 -15.52416,-63.85534 1.40405,-8.34378 8.17787,15.31328 9.88025,20.66772 1.97933,7.72117 8.43017,28.19756 5.84469,9.52517 -3.67408,-24.515 -16.86683,-47.44588 -14.05713,-72.87205 -0.57067,-42.01735 -2.77301,-85.35345 -19.96014,-124.36993 0.49469,-8.61111 -21.106777,-28.47114 -8.96234,-27.48226 14.92301,15.06435 24.36122,34.2826 26.99656,55.22842 10.41621,47.48056 0.6258,97.71601 17.1894,144.13161 7.99111,29.6756 10.8086,60.45799 10.9938,91.08362 6.57619,24.85579 38.51103,12.69424 56.72259,14.13351 22.04232,-7.8204 3.55017,-34.01106 16.17538,-46.6936 13.91767,12.49083 -12.16559,35.18647 1.35187,46.90819 17.47437,-4.29283 -5.54385,24.89845 11.34417,10.57206 6.37144,12.52644 -24.55159,25.54922 -15.61248,42.284 -6.99454,-2.38919 -6.03763,1.07273 -10.10092,5.88145 l -1.94051,-0.5345 -2.77933,-1.26949 0,0 z m 0.7724,-6.21168 c -5.5349,-0.92983 3.32468,4.54481 0,0 z m 12.26776,-14.60263 c -6.88518,-11.99045 -11.08158,12.05344 0,0 z m 3.2933,-9.88323 c 10.56363,-15.19132 -14.83018,-3.87626 -4.99828,2.12418 1.80069,-0.35737 3.33793,-1.39777 4.99828,-2.12418 z m 1.55806,-20.79849 c -7.71852,-8.94463 -5.37782,6.07161 0.009,0.0337 l -0.009,-0.0337 z m -81.28903,-60.11721 c -1.23077,-13.10751 -4.38451,5.34748 0,0 z m -1.36331,-10.19502 c -5.41636,-3.14742 2.0139,6.51372 0,0 z m 81.13876,110.6794 c -1.34098,-5.06754 1.22313,-1.20546 1.95477,1.72618 l -1.95477,-1.72618 z m -76.21158,-19.11378 c -5.9495,-11.00178 6.0212,7.23848 0,0 z m 98.59492,-30.06704 c 0.43804,-6.17173 -1.76393,-31.51054 2.27945,-24.25064 0.47782,2.85046 1.31824,31.65654 -2.27945,24.25064 z m -111.1479,1.29522 c 3.5432,-6.67298 0.98236,8.57456 0,0 z m -0.36598,-12.92648 c -6.08419,-9.87897 7.58151,-3.86507 0,0 z m -2.67288,-25.41163 c 3.39931,-4.89095 0.19116,5.94418 0,0 z m 122.85478,-18.20479 c -8.85283,-10.52504 5.46116,-35.35854 9.85718,-35.43745 -1.32379,12.27037 -5.82595,23.86766 -9.85718,35.43745 z m -27.11992,-10.73852 c -1.21202,-4.94025 4.11334,0.75536 0,0 z m 1.15426,-5.75912 c -3.69255,-8.47166 10.13081,-36.24706 5.34182,-13.82959 -0.9493,4.77594 -0.65634,10.87894 -5.34182,13.82959 z m 18.37906,-6.68015 c 0.52811,-9.46219 12.17999,-31.9885 4.16331,-9.94307 -0.92518,3.35577 -0.60303,8.12461 -4.16331,9.94307 z m 9.05169,-29.11187 c -0.25736,-6.94205 3.36206,-2.02752 0.75284,0.96181 l -0.75284,-0.96181 z m 18.12653,-20.01518 c 0.53515,-12.25007 3.00831,-5.79612 0,0 z m 2.04766,-10.50798 c 0.74414,-5.58772 0.74414,5.58772 0,0 z m -14.1909,-7.88795 c 1.17787,-6.90482 3.17419,2.75275 0,0 z m 1.00868,-5.6223 c 0.15285,-10.34594 0.0862,-33.70005 2.35162,-35.77742 -0.22469,11.94531 0.028,24.00605 -2.35162,35.77742 z m -144.34216,-15.4527 c 1.89921,-14.19434 1.63182,13.00918 0,0 z m 155.36146,-75.73226 c 3.56782,-10.68149 8.52953,-41.14782 16.70954,-38.03928 -4.97988,12.81326 -7.87455,27.17574 -16.70954,38.03928 z m 14.06335,0.11587 c -0.35198,-6.35104 3.83308,-0.25972 0,0 z M 104.88078,621.86998 c -2.48676,-11.07387 4.19493,9.10514 0,0 z M 99.31342,606.0203 c -5.639882,-7.6065 -0.08977,-13.77569 1.48886,-2.55833 3.5008,9.2985 1.96621,14.69341 -1.48886,2.55833 z m 203.54321,6.94292 c 4.1361,-14.53555 0.86626,9.6022 -0.0149,0.10743 l 0.0149,-0.10743 z M 97.764215,563.42565 c 3.064095,-4.43603 2.467885,3.43931 0,0 z"
       id="path3835"
       inkscape:connector-curvature="0" />
    <path
       style="fill:#ffffff;fill-opacity:0.78431373"
       d="m 113.42341,643.60046 c 9.93583,39.44168 7.46775,86.39856 9.71007,129.4732 1.30995,25.16348 4.15543,48.8466 11.02566,68.36436 6.52433,18.53506 16.3617,33.09402 32.26256,43.3141 0.3425,-7e-4 0.64125,-0.0812 1.00235,-0.0626 1.93146,0.0995 4.62389,0.19123 7.79939,3.06482 0.80084,0.72471 1.43704,1.62004 1.94201,2.627 5.58999,2.50767 11.61677,4.70332 18.63712,6.28602 0.54505,0.12259 1.07995,0.29013 1.59747,0.50038 6.36932,2.56817 11.53786,2.53151 17.1336,0.56292 26.03088,-11.9023 42.06442,-52.79065 49.3022,-74.83802 6.36624,-49.25119 28.68382,-78.32171 12.59182,-148.29998 -0.29269,-0.14896 -0.53037,-0.19297 -0.84573,-0.3753 -1.14141,-0.65995 -2.63603,-1.42911 -4.22858,-4.0343 -0.82694,-1.35276 -1.23907,-3.59336 -1.19028,-5.87946 -1.26534,-2.0522 -1.76393,-4.56384 -1.3782,-6.94277 l 1.75408,-11.10217 c -38.03794,0.82489 -101.68465,11.78624 -144.64905,0 -2.9579,1.18583 -6.47505,0.87421 -9.1776,-0.81312 -1.03365,-0.64924 -2.16163,-1.2582 -3.28889,-1.84514 z m 171.08554,2.971 c -1.12732,0.003 -1.73309,0.44628 -2.12995,0.53165 -0.79373,0.17075 -0.96336,0.30046 -1.12762,0.37528 -0.16428,0.0749 -0.25362,0.10145 -0.56381,0.31274 -0.3102,0.21129 -0.84681,0.24614 -2.19261,2.31426 -0.49684,0.76353 -1.0788,2.25328 -1.31556,4.19067 0.0372,-0.0141 0.0887,-0.0487 0.1253,-0.0626 1.48563,-0.56466 2.75485,-0.82022 4.10328,-1.03203 2.86327,-0.4401 5.901,0.41475 8.11263,2.28298 0.87855,0.73684 1.64283,1.51454 2.25525,2.22042 l -2.28656,1.97026 2.31789,2.22044 0.78307,-0.25019 c 0.12319,-0.15299 0.0214,0.10664 0.37587,-0.59422 0.36526,-0.72239 1.00756,-1.91378 0.97101,-4.37831 -0.0365,-2.46453 -1.86341,-6.34385 -4.25991,-8.00607 -2.39652,-1.66223 -4.04094,-2.09881 -5.16828,-2.09534 z m -9.49082,21.79778 c 0.057,0.1782 0.131,0.22141 0.18793,0.37529 l 0.43852,-0.15637 c -0.21113,-0.0662 -0.4201,-0.13916 -0.62645,-0.21892 z m -108.78436,222.60636 -1.9107,3.22119 3.50817,3.15864 1.84805,-3.53392 c -0.34153,-0.45312 -0.64499,-0.92101 -1.0963,-1.3135 -0.80773,-0.70243 -1.58899,-1.18788 -2.34922,-1.53241 z m 1.59747,6.37983 -0.21926,0.43783 3.19493,2.22045 z"
       id="path4109"
       inkscape:connector-curvature="0"
       sodipodi:nodetypes="cssccsccccccsscccccccscssccccccccccscccccccccsccccc" />
    <path
       inkscape:connector-curvature="0"
       style="fill:#d2d2d2"
       d="m 99.390749,562.03859 c -0.336432,-0.0608 -0.862767,0.26703 -1.62879,1.37604 1.85092,2.57948 2.638081,-1.19378 1.62879,-1.37604 z m 4.510501,17.138 c -9.774547,0.27399 10.50254,19.17886 10.02331,27.52087 17.18713,39.01648 19.38202,82.35825 19.95268,124.3756 -2.80969,25.42616 10.38989,48.35278 14.06396,72.86777 2.58549,18.6724 -3.87804,-1.81732 -5.85737,-9.53848 -1.70237,-5.35445 -8.46266,-29.01571 -9.8667,-20.67194 0.25908,22.36492 10.83734,42.58065 15.50481,63.86094 -2.22114,12.1777 7.41257,28.37512 5.45019,35.8397 2.59099,5.44816 3.93521,8.56418 7.70543,15.38667 -9.38184,-2.38137 -10.42381,-1.80277 -0.97102,2.81463 16.38254,2.60267 33.03604,-1.38011 49.49015,-2.09535 15.14656,-4.73229 -3.64413,11.59381 8.30056,7.72462 16.77216,-9.24348 7.63734,7.24641 -2.66243,9.60104 -16.70294,9.24958 -35.5712,3.98996 -52.59112,-0.62549 -2.32232,7.13761 2.22036,9.39081 9.1776,9.8825 1.11465,-0.68542 2.04528,-0.85393 2.1926,0.0626 9.76724,0.22127 22.92229,-2.04451 29.22426,0.31276 20.42164,4.30113 -10.5596,3.88038 -17.47818,3.56519 -10.683,-2.72823 -17.34574,9.89386 -2.1926,5.97328 5.17099,6.84215 26.72868,2.58509 31.91801,14.88629 l 2.78774,1.28222 1.94202,0.53165 c 4.06329,-4.80872 3.09142,-8.26863 10.08596,-5.87944 -8.93911,-16.73478 22.00155,-29.75564 15.63013,-42.28208 -16.88803,14.32639 6.13548,-14.86334 -11.33889,-10.57052 -13.51746,-11.72172 12.53946,-34.41975 -1.37821,-46.91058 -12.62522,12.68255 5.87971,38.87127 -16.1626,46.69166 -18.21157,-1.43926 -50.14956,10.72007 -56.72574,-14.13572 -0.18521,-30.62564 -3.00321,-61.39349 -10.99432,-91.06909 -16.5636,-46.41559 -6.78005,-96.66003 -17.19626,-144.14058 -2.63534,-20.94582 -12.07731,-40.16504 -27.00033,-55.22939 -0.37951,-0.0309 -0.71834,-0.0401 -1.03364,-0.0312 z m -5.982675,18.13875 c -1.367542,0.16445 -1.93915,4.17774 1.409529,8.69409 3.455066,12.1351 4.972976,6.76534 1.472176,-2.53316 -0.64132,-4.55706 -1.946019,-6.27344 -2.881705,-6.16093 z m 199.495405,2.31426 c -7.29829,0.82487 -11.87808,28.23386 -15.22292,38.24776 8.83497,-10.86355 11.74655,-25.24687 16.72642,-38.06013 -0.51125,-0.19428 -1.01695,-0.24263 -1.5035,-0.18763 z m 7.29823,8.56901 c -0.26133,-0.0705 -0.81402,1.11971 -1.84804,4.75359 l -0.0312,0.1251 c 0.6609,7.12108 2.66334,-4.66721 1.87937,-4.87869 z m -200.37244,10.25777 c -0.12365,0.0651 -0.0115,0.98643 0.53249,3.40884 3.27729,7.11339 -0.0909,-3.64128 -0.53249,-3.40884 z m 192.54173,16.66889 c -0.39301,0.11223 -0.73646,0.8612 -0.62648,2.84591 2.63526,-0.17857 1.49106,-3.0928 0.62648,-2.84591 z m -23.36688,58.13785 c -2.26542,2.07738 -2.19636,25.4312 -2.34921,35.77714 2.3797,-11.77137 2.12451,-23.83182 2.34921,-35.77714 z M 127.76928,709.3691 c -0.21651,-0.003 -0.52423,1.11693 -0.9397,4.22195 1.27486,10.16341 1.7129,-4.21256 0.9397,-4.22195 z m 143.33349,22.76726 c -0.30319,0.10861 -0.64523,0.80697 -0.9397,2.53317 2.38065,2.06456 1.84928,-2.85899 0.9397,-2.53317 z m 13.59412,8.81919 c -0.0872,0.0901 -0.20503,0.54727 -0.34455,1.59497 0.6046,4.54002 0.72243,-1.98513 0.34455,-1.59497 z m -1.28425,5.16017 c -0.35963,0.10096 -0.87889,1.96618 -1.09629,6.94276 1.78617,-3.44144 1.62194,-7.09031 1.09629,-6.94276 z m -18.41784,23.42401 c -0.46094,-0.005 -0.9109,0.93067 -0.81439,3.53393 l 0.75175,0.96949 c 1.63076,-1.86834 0.83087,-4.49571 0.0627,-4.50342 z m -3.00699,13.35388 c -0.87252,0.1261 -6.49664,12.79064 -6.85972,19.29589 3.56028,-1.81845 3.24077,-6.58927 4.16595,-9.94504 2.50521,-6.8892 3.09037,-9.40816 2.69377,-9.35085 z m -19.45151,3.59648 c -2.02879,0.22909 -8.44875,16.30299 -5.79473,22.39199 4.68548,-2.95065 4.4069,-9.04704 5.35621,-13.82299 1.3469,-6.30492 1.2324,-8.65863 0.43852,-8.569 z m 30.03864,3.44011 c -4.39602,0.079 -18.71954,24.90809 -9.86672,35.43314 4.03124,-11.56981 8.54293,-23.16275 9.86672,-35.43314 z m -36.67908,22.67345 c -0.41054,-0.012 -0.69199,0.48896 -0.31324,2.03279 2.82791,0.5193 1.21639,-2.0063 0.31324,-2.03279 z m -87.0463,5.87946 c 0.30407,-0.0231 0.84514,0.13368 1.69145,0.62547 1.69924,5.49595 -3.33337,-0.50089 -1.69145,-0.62547 z m 1.75409,6.03582 c 0.43988,-0.0751 0.93809,1.0984 1.28424,4.78489 -3.15137,3.84351 -2.40839,-4.59301 -1.28424,-4.78489 z m -9.4595,17.76349 c -0.23624,0.0256 -0.64687,0.36516 -1.28424,1.28222 0.15533,4.82964 2.30789,-1.39308 1.28424,-1.28222 z m 113.95261,12.79094 c -2.29326,0.0709 -0.65037,20.15037 -1.03364,25.55064 3.59769,7.4059 2.73307,-21.38667 2.25525,-24.23714 -0.50543,-0.90748 -0.89398,-1.32361 -1.22161,-1.3135 z m -112.95028,8.53773 c -1.29858,-0.0229 -2.09583,1.36575 0.37587,5.37909 4.50151,-2.29489 1.52204,-5.3456 -0.37587,-5.37909 z m 2.16127,16.57508 c -0.2858,0.0114 -0.74518,0.46887 -1.40952,1.72005 0.79817,6.96683 2.648,-1.76954 1.40952,-1.72005 z m 84.85368,6.31728 c 0.78181,-0.0556 2.0797,0.70359 4.00933,2.93974 l 0.0312,0.0312 c -4.04014,4.52842 -6.38608,-2.80422 -4.04066,-2.97101 z m 2.91302,16.13725 c 2.39788,-0.0802 3.52285,1.90276 -0.43852,7.59951 -1.66033,0.72642 -3.21097,1.76924 -5.01166,2.12662 -6.14493,-3.75026 1.45373,-9.59262 5.45018,-9.72613 z m -78.27587,4.4096 c -0.19151,-0.0499 0.17275,0.8773 1.66013,3.62774 4.51589,5.42887 -1.08556,-3.47835 -1.66013,-3.62774 z m 70.53913,9.60103 c 1.11702,-0.0707 2.47186,0.84846 3.97801,3.47138 -8.65749,9.41675 -7.9674,-3.21907 -3.97801,-3.47138 z m -61.73739,9.85122 c -5.55705,-0.21402 6.73825,21.50059 -5.54415,23.76802 -1.9257,5.96278 5.2246,-1.74774 6.26457,-2.62699 14.50402,-4.99792 1.90536,-12.7234 -0.1253,-21.04721 -0.21786,-0.0539 -0.41587,-0.087 -0.59512,-0.0938 z m 68.91033,0.84438 c -0.29288,-0.0912 -0.34626,0.5703 0.1566,2.47064 l 1.94203,1.72006 c -0.45727,-1.83227 -1.61052,-4.03875 -2.09863,-4.1907 z m -16.31922,7.25551 c 0.23996,0.0121 0.5311,0.067 0.87704,0.1251 3.11689,4.26076 -4.47648,-0.30643 -0.87704,-0.1251 z m -30.28923,8.88174 c -6.92472,0.11908 -15.45378,1.73134 -18.4805,5.22271 9.1256,-0.17114 18.24685,-0.72974 27.34489,-1.4386 3.38825,-2.5327 -1.93965,-3.90318 -8.86439,-3.78411 z m 24.14995,1.59496 c -1.51359,-0.0145 -3.31412,1.00426 -5.01167,3.94049 11.47487,5.42492 9.55243,-3.89683 5.01167,-3.94049 z m 11.74608,6.81768 c -0.11936,0.0183 -0.19526,0.34666 -0.18795,1.12585 1.96082,4.1578 0.70517,-1.20542 0.18795,-1.12585 z m -64.901,1.15712 c -0.25662,-0.0649 -1.11881,0.33201 -3.007,1.65751 -0.93535,3.00838 3.7768,-1.46299 3.007,-1.65751 z m -44.63511,16.04341 c -1.45837,0.0913 -3.37166,0.78924 -5.4815,2.62701 10.20258,2.43154 9.8566,-2.90089 5.4815,-2.62701 z m 114.20321,4.00305 c -0.5582,-0.0259 -1.37917,0.92468 -2.41185,3.6903 3.49986,5.22701 4.08645,-3.61251 2.41185,-3.6903 z m -14.31456,2.40807 c -1.42261,0.003 -3.04845,0.68304 -4.57313,2.56445 l 0.65779,0.84439 0.971,0.43783 c 10.85523,4.93823 8.02512,-3.85704 2.94434,-3.84667 z m -100.20188,1.15713 c -0.57242,0.0127 -1.29557,0.30693 -2.16128,1.0633 4.25556,4.11751 4.64179,-1.11859 2.16128,-1.0633 z m 13.28091,0.5942 c -0.90803,0.0152 -1.05262,0.67524 0.65778,2.59572 11.79572,3.31059 2.06629,-2.64144 -0.65778,-2.59572 z m 135.18954,1.40732 c -1.16185,-0.004 -2.7665,0.57778 -4.72977,2.18915 7.61983,2.93435 8.21529,-2.17857 4.72977,-2.18915 z m -105.58943,0.81311 c -2.31323,-0.0262 -4.47046,0.19094 -6.07664,0.78184 -17.66773,-0.63637 3.81402,4.7108 9.64745,3.31502 0.77481,0.0544 1.54308,0.10203 2.31789,0.15637 17.02362,0.60072 4.13528,-4.13947 -5.8887,-4.25323 z m 93.81202,0.50039 c -0.84897,0.063 -1.89645,0.57704 -2.97567,1.87642 6.79331,3.47504 6.00766,-2.10122 2.97567,-1.87642 z m -20.82971,0.5942 c -2.64206,0.0823 -5.19806,0.60287 -6.76574,1.90768 2.35023,2.64636 5.95472,0.8212 8.83304,0.68803 14.60327,0.93945 5.85887,-2.84263 -2.0673,-2.59571 z"
       id="path3841-9" />
    <path
       style="fill:#c2c2c2;fill-opacity:0.78431373"
       d="m 126.45372,646.25872 c 6.64183,42.97687 10.8461,129.48452 15.26643,145.33616 -16.29138,-7.79136 10.83642,52.02397 9.15033,68.86154 8.97967,45.9121 93.09619,45.34511 96.7699,-2.33219 6.6044,-18.58697 21.98859,-75.71128 12.04428,-70.81087 -9.09718,11.34407 12.73009,-48.66377 5.94304,-64.7683 4.69061,-17.98925 4.39862,-91.2642 -2.482,-39.04717 2.58955,49.2417 -14.88878,95.312 -20.32949,143.06765 3.62962,13.88902 -10.64438,58.69743 -10.07532,27.48122 -6.54209,38.97477 -55.72372,51.68548 -62.93606,4.35437 -6.44129,-14.16508 -2.09333,27.02733 -9.28332,-9.26399 -5.07684,-50.21276 -21.62817,-99.22989 -23.23935,-149.32477 -0.0207,-17.7019 5.94039,-41.16841 -10.82844,-53.55365 z m 0,47.0044 c -1.76088,24.32365 7.42433,28.10514 0,0 z m 147.0609,0 c -5.38643,17.88544 2.31469,27.4061 0,0 z m -144.80565,38.87324 c -5.23456,4.04493 6.81286,1.57921 0,0 z m 142.3938,0 c -5.96997,1.5453 4.59305,3.43066 0,0 z m -113.79602,54.35373 c -6.3922,18.2481 16.48811,14.68436 0,0 z m 85.22955,0 c -14.72048,12.8787 7.79733,21.04699 0,0 z m -112.66839,4.97252 c -4.74378,22.70607 22.1094,25.73706 0,0 z m 140.23252,0 c -19.44011,18.71305 0.14778,35.64324 0,0 z m -106.02794,21.14104 c -5.62466,1.07501 4.94659,3.2614 0,0 z m 71.82337,0 c -4.65722,3.80073 6.27388,0.42991 0,0 z m -87.0463,5.87946 c 7.07822,-1.43313 -3.38423,6.32423 0,0 z m 102.26921,0 c 1.84418,5.48091 -6.02696,-1.9613 0,0 z m -100.51512,6.03582 c 6.19741,4.74491 -7.86212,4.62016 0,0 z m 98.76104,0 c 6.48243,5.24326 -9.05185,5.20986 0,0 z m -108.22054,17.76349 c -6.51572,0.76835 4.77234,4.48931 0,0 z m 117.68004,0 c -4.0242,4.65833 6.5492,0.35536 0,0 z m -92.59042,48.69318 c -1.82106,4.8678 5.34607,-2.92143 0,0 z m 67.5008,0 c -7.88915,-6.27061 -0.0851,6.04575 0,0 z"
       id="path4109-4"
       inkscape:connector-curvature="0" />
  </g>
</svg>
